<svg width="323" height="403" viewBox="0 0 323 403" fill="none" xmlns="http://www.w3.org/2000/svg">
<mask id="mask0_357_607" style="mask-type:luminance" maskUnits="userSpaceOnUse" x="0" y="0" width="323" height="403">
<path d="M322.44 0H0V402.95H322.44V0Z" fill="white"/>
</mask>
<g mask="url(#mask0_357_607)">
<path d="M228.771 100.629C227.761 101.399 227.571 102.509 227.761 103.779C229.031 112.229 228.151 120.729 228.321 129.199C228.481 137.439 228.361 137.479 236.421 137.539C243.341 137.589 250.271 137.549 258.081 137.549C255.311 149.859 250.951 160.769 249.301 173.149C253.701 171.479 255.791 168.629 258.721 165.759C279.931 142.449 301.141 119.149 322.441 95.7492C319.441 93.3692 316.861 93.8092 314.431 93.8092C290.791 93.7792 267.141 94.0992 243.511 93.6292C236.901 93.4992 233.171 97.2692 228.781 100.629H228.771Z" fill="#0F1217"/>
<path d="M55.6007 198.66C78.4507 209.56 101.281 220.52 124.141 231.42C125.881 232.25 127.751 233.99 129.691 232.75C131.951 231.3 130.761 228.79 130.471 226.75C129.101 217.24 129.391 207.8 131.651 198.47C134.051 188.56 134.131 188.58 124.821 184.26C124.221 183.98 123.601 183.73 122.991 183.45C108.711 176.64 94.3407 169.99 80.1807 162.93C73.7607 159.73 71.1807 153.67 72.6607 147.61C74.2007 141.31 78.8907 137.76 86.3507 137.42C89.6807 137.27 93.0207 137.2 96.3507 137.4C100.501 137.65 101.831 135.89 101.841 131.81C101.861 122.51 100.971 113.15 102.951 103.93C103.161 102.93 103.381 101.73 102.451 101.15C97.6807 98.16 94.2007 92.7 87.2707 93.9C81.7107 94.86 75.9707 94.84 70.4307 95.9C33.4507 102.93 14.0107 140.44 30.0507 174.95C35.9507 185.69 44.6207 193.42 55.6307 198.67L55.6007 198.66Z" fill="#0F1217"/>
<path d="M307.761 232.88C274.331 216.67 241.011 200.23 207.641 183.9C205.901 183.05 204.201 181.82 202.081 182.33C199.801 189 200.571 191.27 206.191 194.05C230.091 205.87 254.001 217.64 277.891 229.47C284.581 232.78 291.481 235.71 297.741 239.87C296.921 242.03 294.971 242.43 293.421 243.27C285.811 247.41 278.151 251.45 270.521 255.56C263.421 259.39 263.141 260.26 266.191 269.17C279.271 263.33 291.191 255.17 304.661 249.42C304.951 251.02 305.171 251.66 305.171 252.3C305.171 271.3 305.081 290.3 305.171 309.3C305.191 312.65 303.171 313.93 300.761 315.24C256.531 339.23 212.311 363.23 168.081 387.2C166.691 387.95 165.331 389.23 162.951 388.14C162.951 375.24 162.941 362.12 162.961 349C162.961 346.64 164.731 345.61 166.491 344.56C173.511 340.4 180.581 336.3 187.511 331.98C205.891 320.54 225.181 310.57 243.331 297.43C263.531 276.44 258.311 246.11 232.281 233.25C224.961 229.64 217.651 226 210.281 222.47C207.161 220.98 204.191 219.06 200.701 218.51C196.781 225.53 197.151 226.98 203.621 230.16C211.391 233.99 219.101 237.97 226.971 241.58C237.521 246.42 244.061 254.21 245.231 265.88C246.451 278.02 241.411 287.58 231.271 293.82C208.001 308.13 184.441 321.96 161.011 336.02C158.611 337.46 156.541 337.37 154.031 336.02C133.021 324.8 111.941 313.68 90.8609 302.59C88.4209 301.31 86.5909 299.69 85.3209 297.13C81.2409 288.93 76.7809 280.91 72.7709 272.68C70.8309 268.7 68.0009 266.12 64.0709 264.19C50.1609 257.37 36.3409 250.36 22.5009 243.38C20.7609 242.5 18.7309 241.97 17.3509 239.63C33.3409 231.63 50.2209 225.6 65.9809 216.9C61.8409 211.78 58.4609 210.74 53.8209 212.78C38.2609 219.61 22.7909 226.63 7.14091 233.26C1.96091 235.47 -0.0490918 238.82 0.00090822 244.39C0.200908 266.89 0.220908 289.39 0.0709082 311.89C0.0409082 316.69 1.86091 319.6 5.98091 321.84C54.4409 348.15 102.881 374.51 151.241 401.01C156.031 403.64 160.021 403.57 164.771 400.97C212.701 374.73 260.691 348.59 308.761 322.58C313.581 319.97 315.761 316.83 315.701 311.19C315.441 289.36 315.391 267.52 315.741 245.7C315.841 239.22 313.411 235.62 307.761 232.88Z" fill="#0F1217"/>
<path d="M149.02 0.00694774C178.999 0.916945 208.99 0.176837 238.97 0.38683C248.53 0.456829 249.49 1.37716 249.49 11.0568C249.48 21.8867 249.53 32.7171 249.46 43.547C249.4 52.197 247.1 54.4869 238.46 54.5069C228.14 54.5269 229.559 54.5572 229.52 63.4269C229.49 69.0868 229.64 74.7571 229.48 80.4171C229.24 88.5971 225.46 92.2466 217.35 92.4366C215.35 92.4766 213.349 92.4866 211.35 92.4366C208.29 92.3567 205.84 92.5174 205.72 96.7569C205.61 100.697 206.97 101.968 210.83 102.108C215.38 102.268 218.28 104.967 218.59 109.687C219.21 119.167 219.07 128.667 218.7 138.157C218.65 139.417 218.23 140.957 217.41 141.847C211.58 148.177 206.18 155.437 195.98 154.157C191.381 153.587 189.85 155.608 189.88 160.108C189.96 173.597 190.1 187.078 190.61 200.567C190.91 208.747 190.31 216.897 186.97 224.577C186.35 226.007 186.17 227.457 186.8 228.937C193.03 243.737 189.05 259.207 189.73 274.377C189.82 276.497 188.38 278.048 186.81 279.398C180.88 284.497 174.92 289.577 169.07 294.767C165.95 297.537 163.03 297.817 159.78 295.017C155.49 291.317 151.08 287.767 146.72 284.157C139.51 279.567 137.52 273.567 137.96 265.877C138.44 257.507 138.66 249.207 142.88 241.687C144.03 239.637 143.57 237.997 142.66 236.077C135.75 221.387 136.57 206.697 143.22 192.207C144.65 189.087 145.04 187.067 142.05 184.537C138.84 181.827 138.36 177.557 138.21 173.517C138.03 168.697 137.8 163.847 138.1 159.037C138.34 155.267 136.81 153.837 133.34 153.787C132.67 153.777 131.99 153.557 131.35 153.667C122.33 155.157 117.41 148.797 111.95 143.527C110.31 141.948 109.95 139.767 109.95 137.527C109.94 128.528 109.82 119.527 109.92 110.537C109.98 105.127 111.9 102.828 117.38 102.567C121.87 102.357 122.37 100.167 122.32 96.4669C122.26 92.4872 119.91 92.437 117.05 92.337C100.14 91.767 99.2097 90.777 99.2197 73.7374C99.2197 69.0775 99.0498 64.3971 99.2998 59.7472C99.4898 56.1573 98.2495 54.6872 94.5596 54.4972L94.5703 54.4571C86.7803 54.0471 85.1604 52.1769 85.1104 44.2569C85.0304 32.2672 85.05 20.2672 85 8.27746C85 6.42749 85.0602 4.61707 85.9102 2.9171C86.8301 1.09726 88.12 0.0768203 90.2998 0.476674C92.3997 0.856654 93.6503 2.02704 93.7305 4.13683C93.8705 8.12679 93.9097 12.1271 93.9297 16.1271C93.9597 23.957 93.9997 31.7873 93.9297 39.6173C93.8897 43.2571 95.1105 44.9474 99.1504 44.9874C110.32 45.0874 110.31 45.2565 110.29 34.2267C110.27 25.397 110.29 16.5671 110.29 7.73742C110.29 5.15745 110.52 2.58677 112.92 1.09679C116.37 -1.04306 119.84 1.48724 119.89 6.4171C120 16.7471 119.89 27.0774 119.83 37.4073C119.79 44.8971 119.76 44.9073 127.17 44.9073H140.67C142.07 40.4075 141.15 36.2472 141.24 32.1573C141.42 23.8374 141.28 15.5068 141.46 7.17687C141.57 2.12725 144.01 -0.142893 149.02 0.00694774ZM179.611 237.018C174.696 244.12 169.014 249.457 163.9 255.312C159.505 260.345 155.5 265.643 152.171 271.444C151.233 273.08 150.193 274.748 152.021 276.373C155.203 279.203 158.47 281.939 162.365 285.284C164.109 275.729 168.04 267.992 173.355 260.867C175.534 257.948 177.201 254.647 179.232 251.175C180.833 246.587 181.795 242.336 179.611 237.018ZM179.888 264.651C175.484 269.11 173.248 274.234 171.703 279.8C175.621 277.936 179.014 275.721 181.152 271.599C181.163 269.171 181.834 266.989 179.888 264.651ZM181.343 205.608C176.891 210.836 173.783 215.503 170.137 219.718C163.076 227.88 155.396 235.65 150.786 246.108C149.005 251.718 146.564 256.867 148.568 263.679C153.134 256.576 158.36 251.23 163.404 245.733C170.099 238.437 176.107 230.689 179.532 221.284C181.209 216.681 182.411 211.918 181.343 205.608ZM180.657 154.864C170.502 154.864 160.402 154.814 150.304 154.901C147.722 154.923 147.736 157.065 147.714 158.929C147.645 164.753 147.491 170.581 147.631 176.401C147.675 178.215 147.073 180.479 149.45 181.954C153.91 178.916 156.728 174.357 160.07 170.289C163.071 166.636 166.111 166.313 170.654 169.425C166.75 176.042 160.669 180.89 156.149 186.963C151.58 193.103 148.534 199.937 147.931 208.938C154.251 202.835 159.391 197.073 166.392 193.457C165.116 197.853 162.789 201.507 159.877 204.887C154.624 210.983 149.74 217.328 149.099 225.797C148.96 227.623 148.298 229.688 150.643 231.679C156.36 224.945 161.836 218.299 167.522 211.84C177.846 200.115 182.752 186.645 181.12 170.519C179.511 165.191 182.197 160.182 180.657 154.864ZM155.378 112.289C144.947 111.561 134.428 112.155 123.953 111.932C120.215 111.852 118.93 113.257 119.052 116.893C119.224 122.041 119.027 127.203 118.984 132.823C119.226 139.918 124.702 145.13 131.384 145.563C144.355 146.401 157.314 145.287 170.278 145.537C179.416 145.714 188.548 146.2 197.695 145.562C203.933 145.126 209.35 139.903 209.414 133.781C209.475 127.96 209.36 122.136 209.463 116.316C209.511 113.604 208.487 112.355 205.7 112.354C199.224 112.35 192.746 112.287 186.272 112.109C175.976 111.828 165.721 113.011 155.378 112.289ZM159.282 119.269C164.923 115.742 169.772 117.55 174.303 124.869C174.649 129.288 174.767 132.938 174.791 136.588C174.799 137.765 174.59 139.011 173.058 139.187C171.493 139.366 170.625 138.542 170.153 137.074C169.417 134.786 169.748 132.49 169.806 130.165C169.897 126.451 168.564 123.347 164.333 123.314C160.059 123.279 159.453 126.433 159.602 129.948C159.699 132.258 159.916 134.6 159.13 136.867C158.636 138.291 157.705 139.062 156.17 139.03C154.859 139.003 154.066 138.383 153.602 137.114C151.444 131.215 154.21 122.44 159.282 119.269ZM130.079 120.571C133.061 120.524 133.899 122.786 134.009 125.289C134.131 128.092 134.174 130.908 134.053 133.709C133.964 135.757 134.366 138.424 131.262 138.637C128.25 138.843 126.092 137.625 126.078 134.151C126.035 130.631 125.924 127.982 126.091 125.35C126.247 122.88 127.169 120.618 130.079 120.571ZM198.707 120.5C201.937 120.455 202.63 123.034 202.808 125.698C202.896 127.022 202.883 128.352 202.916 129.679C202.828 132.238 202.91 133.928 202.592 135.538C202.085 138.099 199.966 138.172 197.902 138.15C195.792 138.127 194.372 137.33 194.354 134.964C194.33 131.977 194.242 128.989 194.28 126.002C194.318 123.048 195.373 120.547 198.707 120.5ZM137.429 92.8849C133.895 92.8567 131.839 93.4658 131.92 97.7433C131.992 101.532 133.143 103.191 137.056 103.173C155.345 103.088 173.636 103.152 191.926 103.13C194.329 103.127 196.895 102.999 196.675 99.5763C196.484 96.6117 197.343 92.7452 191.762 93.0773C173.342 93.0208 155.385 93.0278 137.429 92.8849ZM170.774 55.1105C152.275 55.1091 133.776 55.113 115.276 55.1407C109.028 55.1501 108.914 55.2951 108.896 61.6564C108.883 66.489 108.917 71.3219 108.885 76.1544C108.833 83.822 108.954 84.0019 116.626 84.0109C141.792 84.0403 166.957 84.04 192.123 84.046C199.456 84.0478 206.793 83.8966 214.121 84.0753C218.648 84.1857 220.358 82.3354 220.154 77.837C219.891 72.0157 219.985 66.1709 220.117 60.3409C220.197 56.8115 218.884 54.9466 214.734 55.1564C199.773 55.1343 185.274 55.1115 170.774 55.1105ZM160.381 62.7843C163.645 60.5949 167.901 61.4667 170.573 64.713C173.681 68.4878 173.159 71.694 168.672 76.3946C162.669 78.4629 158.678 77.0522 156.925 72.6222C155.268 68.4352 156.827 65.1679 160.381 62.7843ZM134.417 63.1593C137.815 61.0925 142.294 62.1659 144.591 65.3722C145.49 66.6273 145.926 68.0207 145.919 69.5587C145.366 73.3767 143.667 75.5031 140.822 76.5987C137.102 78.0313 132.737 75.942 131.076 71.9601C129.433 68.0188 131.103 65.1747 134.417 63.1593ZM184.858 64.5919C187.273 61.7244 190.621 61.4444 193.938 62.9835C197.219 64.5055 198.365 67.3511 197.865 70.8097C197.045 76.4884 191.099 78.5269 185.634 75.0636C182.298 71.2688 182.174 67.7806 184.858 64.5919ZM211.151 62.8956C212.841 62.2146 213.943 63.8541 214.361 65.2862C215.361 68.7103 216.028 72.6355 212.996 75.0226C210.118 77.2886 209.266 74.0602 208.412 71.9493C208.218 70.6746 208.072 70.1711 208.123 69.6886C208.397 67.0886 208.198 64.087 211.151 62.8956ZM116.471 63.0392C118.993 62.0577 119.427 64.8598 120.201 66.586C120.47 68.1199 120.749 68.9883 120.562 69.7413C120.001 72.0096 120.279 75.3871 117.146 75.4601C114.44 75.5229 113.839 72.5084 113.591 70.2677C113.28 67.4546 113.459 64.2112 116.471 63.0392ZM154.601 10.0275C150.437 10.0116 149.031 11.8201 149.094 15.753C149.216 23.4115 149.079 31.0748 149.094 38.7355C149.106 45.3574 149.253 45.508 155.715 45.5109C180.696 45.5219 205.678 45.5389 230.659 45.4982C240.341 45.4824 239.34 46.5001 239.431 36.088C239.438 28.7647 239.302 21.9315 239.51 15.1095C239.622 11.4017 238.112 10.0621 234.541 10.0685C207.894 10.1164 181.247 10.1301 154.601 10.0275Z" fill="#0F1217"/>
</g>
</svg>
