<svg width="682" height="93" viewBox="0 0 682 93" fill="none" xmlns="http://www.w3.org/2000/svg">
<path d="M612.441 66.7881C607.226 56.2426 599.951 46.7159 592.781 35.5132C592.781 55.4398 592.781 73.8756 592.781 92.3002L571.24 92.3053C570.762 86.3739 570.703 81.0413 570.73 75.2526C570.808 50.1101 570.798 25.4288 570.788 0.747467C574.139 0.596497 577.491 0.445496 581.723 0.318604C584.266 0.347443 585.968 0.587097 587.582 0.312653C587.683 0.29534 587.784 0.279298 587.884 0.264521L591.05 0.255594C593.823 0.733307 595.763 2.60534 597.45 5.64908C601.224 12.4602 605.602 18.9393 609.778 25.5256C615.231 34.1278 620.735 42.698 626.505 51.7329C627.617 50.0616 628.355 48.9987 629.046 47.9065C638.011 33.7481 647.038 19.6285 655.875 5.39056C657.582 2.64004 659.365 0.442542 662.474 0.0541948L681.694 0C681.694 30.957 681.694 61.4607 681.694 92.2796L660.624 92.2845C660.604 92.2828 660.584 92.2812 660.564 92.2796C660.127 88.3897 660.06 85.0912 660.122 81.4125C660.169 77.2301 660.086 73.4279 660.128 69.2092C660.179 63.4638 660.104 58.1348 660.169 52.4182C660.308 46.9205 660.308 41.8104 660.308 36.7002C660.003 36.6544 659.698 36.6087 659.393 36.5629C658.449 38.2527 657.504 39.9426 656.285 41.7908C655.513 42.8739 655.016 43.7986 654.301 44.8152C653.915 45.3367 653.747 45.7661 653.292 46.4057C647.421 55.4697 641.901 64.3661 636.18 73.1313C635.329 74.4349 633.631 75.7522 632.154 75.9871C623.622 77.344 616.984 75.9745 612.441 66.7881Z" fill="white"/>
<path d="M88.4955 53.1544C88.7218 66.7576 91.9464 81.4132 77.1928 90.5385C76.5484 90.9371 76.1781 91.7791 75.6838 92.4205L0 92.4381C0.900027 90.6692 1.7237 89.0436 2.74969 86.9776C4.16287 84.1426 5.61462 82.026 6.35153 79.6845C7.66793 75.5016 10.166 74.4045 14.4813 74.5046C28.2993 74.8248 42.1352 74.3843 55.9527 74.7156C64.4563 74.9195 67.382 73.1554 66.7892 63.8443C66.4127 57.9315 64.6777 55.9139 58.6115 55.896C49.9499 55.8704 41.2163 55.1889 32.6436 56.0636C20.4982 57.3029 10.3942 54.9577 3.46301 44.1106C3.30602 43.8649 2.91229 43.7705 2.62896 43.6056C2.02358 42.3037 0.921564 41.012 0.894739 39.6983C0.738825 32.0664 0.769799 24.428 0.918512 16.7953C0.940728 15.654 1.69711 14.3424 2.48406 13.4282C8.10489 6.89895 10.9746 3.57451 14.4813 1.88133L85.8199 1.68018C84.227 6.48831 82.0352 11.0927 80.1524 15.8202C79.0996 18.4633 77.5426 19.079 74.8622 19.0499C60.8903 18.8984 46.9161 18.9831 32.943 18.9241C23.5919 18.8845 22.6534 19.7724 22.7334 29.0904C22.7896 35.6318 24.4303 37.2757 31.0255 37.2767C40.5072 37.2782 50.0932 38.1146 59.4437 36.9964C70.5657 35.6662 78.6988 39.1984 84.9752 48.054C86.1875 49.7645 88.4669 51.4358 88.4955 53.1544Z" fill="white"/>
<path d="M100.576 74.2746C100.662 49.7617 100.651 25.697 100.639 1.63839L182.964 1.40625C180.799 6.77287 178.38 12.1807 175.483 17.3191C174.803 18.5257 172.21 19.1777 170.49 19.1929C154.695 19.3323 138.899 19.275 122.773 19.275C122.773 25.1368 122.773 30.6878 122.773 36.6389C139.337 36.6389 155.882 36.6389 173.115 36.6389C170.155 42.5165 167.658 47.9042 164.696 53.0227C164.043 54.1508 161.748 54.8321 160.197 54.8556C149.383 55.0195 138.565 54.9562 127.748 54.9651C126.13 54.9665 124.511 54.9653 122.658 54.9653C122.658 61.574 122.658 67.6725 122.658 74.268C142.016 74.268 161.233 74.268 180.938 74.268C180.938 80.4713 180.938 86.1982 180.888 92.396L101.069 92.4146C100.586 91.5879 100.518 91.1273 100.518 90.4554C100.544 90.0561 100.492 89.8963 100.543 89.29C100.587 85.7944 100.529 82.7454 100.554 79.2887C100.584 77.499 100.531 76.117 100.576 74.2746Z" fill="white"/>
<path d="M478.695 92.3268L455.482 92.3322C460.728 79.4848 466.355 66.6653 472.131 53.9134C480.144 36.2217 488.276 18.5834 496.571 0.62053C497.252 0.581846 497.929 0.547172 498.605 0.516073L521.102 0.452637C522.111 0.770456 522.974 1.49959 523.622 3.07073C526.72 10.5835 530.291 17.9022 533.692 25.2891C542.359 44.1105 551.041 62.9245 559.826 82.0981C561.156 85.7056 562.396 89.02 563.627 92.307L540.741 92.3123C540.595 92.2997 540.449 92.2869 540.303 92.2739C539.415 90.6315 539.005 89.5413 538.529 88.4802C536.491 83.9353 535.586 77.5927 532.071 75.3526C528.336 72.9724 522.122 74.3988 516.988 74.3208C510.797 74.2266 504.604 74.2985 497.768 74.2985C500.489 68.1236 502.622 62.9061 505.134 57.8772C505.684 56.7748 507.55 55.7773 508.862 55.7062C513.624 55.4482 518.408 55.6045 523.789 55.6045C518.905 44.3078 514.245 33.5305 509.325 22.1512C502.872 36.6349 496.609 50.517 490.499 64.4657C486.452 73.7036 482.621 83.0362 478.695 92.3268Z" fill="white"/>
<path d="M296.263 5.55124C296.821 3.44104 297.68 1.95449 298.906 1.07951L324.507 1.00732C326.741 5.16316 328.486 8.85706 330.17 12.5787C342.198 39.1669 354.214 65.7608 366.234 92.3529L344.036 92.3581C343.447 92.1239 342.831 91.8396 342.172 91.5167C341.294 89.8054 340.759 88.683 340.14 87.2101C339.047 84.7838 338.037 82.7081 336.984 80.2897C336.24 78.5298 335.54 77.1126 334.807 75.4001C334.443 74.9697 334.111 74.8349 333.342 74.5679C329.88 74.4843 326.855 74.5328 323.44 74.4551C315.354 74.2458 307.657 74.1628 300.11 73.6534C300.692 72.1093 301.124 70.9917 301.733 69.6075C303.537 65.8856 305.385 62.5127 306.718 58.9475C307.687 56.3569 309.018 55.3931 311.811 55.5472C316.377 55.7992 320.968 55.6154 326.248 55.6154C324.169 51.0717 322.392 47.1862 320.582 42.946C320.212 41.9661 319.873 41.3406 319.495 40.3736C318.258 37.582 317.062 35.1318 315.846 32.3251C314.826 29.8788 313.826 27.7891 312.825 25.3647C312.391 24.3101 311.959 23.5902 311.271 22.4441C310.742 23.9123 310.416 24.8159 309.901 26.0339C307.977 30.4308 306.244 34.5131 304.246 38.8194C300.037 48.1963 296.09 57.3494 291.965 66.7396C291.463 67.8934 291.139 68.8102 290.616 69.9343C290.237 70.6663 290.056 71.191 289.662 72.0037C286.885 78.4303 284.321 84.5689 281.553 90.9104C281.258 91.489 281.088 91.9445 280.945 92.3728L257.124 92.3783C256.949 92.0538 256.985 91.7385 257.184 91.6061C257.58 90.8646 257.727 90.2902 258.139 89.4894C261.852 81.41 265.299 73.5569 268.948 65.4995C269.327 64.7684 269.504 64.2415 269.897 63.4326C274.348 53.6763 278.582 44.202 283.032 34.5338C283.41 33.7982 283.571 33.2566 283.962 32.4492C285.39 29.3613 286.587 26.5392 288 23.5229C288.378 22.7907 288.54 22.2528 288.925 21.4413C290.353 18.3484 291.558 15.5291 293.005 12.4649C294.16 10.0779 295.073 7.93567 296.263 5.55124Z" fill="white"/>
<path d="M384.857 0.963407C384.956 0.930592 385.055 0.897787 385.288 0.835872L454.357 0.641113C451.156 7.08998 448.397 12.9 445.303 18.5258C444.839 19.3692 442.708 19.5908 441.345 19.5991C428.02 19.6803 414.694 19.6378 401.368 19.6671C394.774 19.6816 391.104 23.2153 391.078 29.6384C391.032 41.1315 391.027 52.625 391.076 64.1181C391.1 69.6356 395.209 73.6818 400.77 73.6922C417.748 73.7242 434.726 73.7038 452.526 73.7038C449.474 80.071 446.638 85.9877 443.776 92.2623C443.564 92.287 443.351 92.3113 443.139 92.3351L385.125 92.3485C380.276 87.5383 375.82 83.2953 371.822 78.6573C370.368 76.9705 369.297 74.3437 369.272 72.132C369.082 55.3376 369.073 38.5377 369.35 21.7452C369.391 19.2599 370.723 16.3837 372.344 14.419C376.235 9.70269 380.652 5.42068 384.857 0.963407Z" fill="white"/>
<path d="M241.824 92.3819L220.201 92.3869C219.759 68.1741 219.759 44.0939 219.759 19.6276C208.626 19.6276 197.747 19.6276 185.883 19.6276C189.122 13.2229 192.009 7.51601 194.922 1.46508C195.008 1.43383 195.094 1.40278 195.18 1.37197L278.611 1.13672C278.787 1.78607 278.667 2.25898 278.363 2.87328C277.233 4.86717 276.212 6.59142 275.549 8.44368C272.717 16.3566 268.371 21.9099 258.338 19.6501C255.19 19.6222 252.485 19.688 249.358 19.6651C247.217 19.6439 245.499 19.7115 243.339 19.7104C242.52 20.248 241.812 20.8541 241.812 21.4603C241.811 32.8791 241.894 44.2979 241.872 56.1386C241.843 58.2784 241.903 59.9963 241.872 62.161C241.839 65.6441 241.896 68.6803 241.867 72.1638C241.84 75.6455 241.898 78.6799 241.865 82.157C241.842 85.3054 241.911 88.0112 241.896 91.0657C241.841 91.6297 241.826 92.0316 241.824 92.3819Z" fill="white"/>
</svg>
